<mxfile host="app.diagrams.net" modified="2023-02-17T02:22:26.181Z" agent="5.0 (Macintosh; Intel Mac OS X 10_15_7) AppleWebKit/537.36 (KHTML, like Gecko) Chrome/109.0.0.0 Safari/537.36" version="20.8.1" etag="ruTszLt429-KEXODsuIP" type="github">
  <diagram id="L6RQ2ZykLYV3-TmsfMhJ" name="第 1 页">
    <mxGraphModel dx="775" dy="494" grid="1" gridSize="10" guides="1" tooltips="1" connect="1" arrows="1" fold="1" page="1" pageScale="1" pageWidth="827" pageHeight="1169" math="0" shadow="0">
      <root>
        <mxCell id="0" />
        <mxCell id="1" parent="0" />
        <mxCell id="R377XzYp1-sSstpi_tux-1" value="&lt;font style=&quot;font-size: 24px;&quot;&gt;浏览器&lt;/font&gt;" style="rounded=0;whiteSpace=wrap;html=1;" vertex="1" parent="1">
          <mxGeometry x="120" y="160" width="120" height="40" as="geometry" />
        </mxCell>
        <mxCell id="R377XzYp1-sSstpi_tux-2" value="&lt;font style=&quot;font-size: 24px;&quot;&gt;服务器&lt;/font&gt;" style="rounded=0;whiteSpace=wrap;html=1;" vertex="1" parent="1">
          <mxGeometry x="400" y="160" width="120" height="40" as="geometry" />
        </mxCell>
        <mxCell id="R377XzYp1-sSstpi_tux-6" value="" style="endArrow=classic;html=1;rounded=0;fontSize=24;exitX=1.029;exitY=0.75;exitDx=0;exitDy=0;exitPerimeter=0;entryX=0;entryY=0.75;entryDx=0;entryDy=0;" edge="1" parent="1" source="R377XzYp1-sSstpi_tux-1" target="R377XzYp1-sSstpi_tux-2">
          <mxGeometry width="50" height="50" relative="1" as="geometry">
            <mxPoint x="280" y="160" as="sourcePoint" />
            <mxPoint x="330" y="110" as="targetPoint" />
          </mxGeometry>
        </mxCell>
        <mxCell id="R377XzYp1-sSstpi_tux-8" value="请求" style="edgeLabel;html=1;align=center;verticalAlign=middle;resizable=0;points=[];fontSize=12;" vertex="1" connectable="0" parent="R377XzYp1-sSstpi_tux-6">
          <mxGeometry x="-0.0414" relative="1" as="geometry">
            <mxPoint as="offset" />
          </mxGeometry>
        </mxCell>
        <mxCell id="R377XzYp1-sSstpi_tux-9" value="" style="endArrow=classic;html=1;rounded=0;fontSize=24;exitX=1.029;exitY=0.75;exitDx=0;exitDy=0;exitPerimeter=0;entryX=0;entryY=0.75;entryDx=0;entryDy=0;" edge="1" parent="1">
          <mxGeometry width="50" height="50" relative="1" as="geometry">
            <mxPoint x="400" y="170" as="sourcePoint" />
            <mxPoint x="243.48000000000002" y="170" as="targetPoint" />
          </mxGeometry>
        </mxCell>
        <mxCell id="R377XzYp1-sSstpi_tux-10" value="返回" style="edgeLabel;html=1;align=center;verticalAlign=middle;resizable=0;points=[];fontSize=12;" vertex="1" connectable="0" parent="R377XzYp1-sSstpi_tux-9">
          <mxGeometry x="-0.0414" relative="1" as="geometry">
            <mxPoint as="offset" />
          </mxGeometry>
        </mxCell>
        <mxCell id="R377XzYp1-sSstpi_tux-11" value="代理服务器" style="rounded=1;whiteSpace=wrap;html=1;fontSize=12;dashed=1;" vertex="1" parent="1">
          <mxGeometry x="260" y="240" width="120" height="40" as="geometry" />
        </mxCell>
        <mxCell id="R377XzYp1-sSstpi_tux-12" value="" style="endArrow=classic;html=1;rounded=0;fontSize=12;exitX=0.5;exitY=1;exitDx=0;exitDy=0;entryX=0;entryY=0;entryDx=0;entryDy=0;" edge="1" parent="1">
          <mxGeometry width="50" height="50" relative="1" as="geometry">
            <mxPoint x="180" y="204" as="sourcePoint" />
            <mxPoint x="260" y="244" as="targetPoint" />
          </mxGeometry>
        </mxCell>
        <mxCell id="R377XzYp1-sSstpi_tux-14" value="请求" style="edgeLabel;html=1;align=center;verticalAlign=middle;resizable=0;points=[];fontSize=12;" vertex="1" connectable="0" parent="R377XzYp1-sSstpi_tux-12">
          <mxGeometry x="-0.155" y="-1" relative="1" as="geometry">
            <mxPoint as="offset" />
          </mxGeometry>
        </mxCell>
        <mxCell id="R377XzYp1-sSstpi_tux-13" value="" style="endArrow=classic;html=1;rounded=0;fontSize=12;exitX=0.971;exitY=0.013;exitDx=0;exitDy=0;exitPerimeter=0;" edge="1" parent="1">
          <mxGeometry width="50" height="50" relative="1" as="geometry">
            <mxPoint x="385.52" y="245.51999999999998" as="sourcePoint" />
            <mxPoint x="439" y="205" as="targetPoint" />
          </mxGeometry>
        </mxCell>
        <mxCell id="R377XzYp1-sSstpi_tux-15" value="请求" style="edgeLabel;html=1;align=center;verticalAlign=middle;resizable=0;points=[];fontSize=12;" vertex="1" connectable="0" parent="R377XzYp1-sSstpi_tux-13">
          <mxGeometry x="0.046" y="-1" relative="1" as="geometry">
            <mxPoint as="offset" />
          </mxGeometry>
        </mxCell>
        <mxCell id="R377XzYp1-sSstpi_tux-16" value="" style="endArrow=classic;html=1;rounded=0;fontSize=12;entryX=1.021;entryY=0.838;entryDx=0;entryDy=0;entryPerimeter=0;exitX=0.667;exitY=1;exitDx=0;exitDy=0;exitPerimeter=0;" edge="1" parent="1">
          <mxGeometry width="50" height="50" relative="1" as="geometry">
            <mxPoint x="485.03999999999996" y="201" as="sourcePoint" />
            <mxPoint x="387.52" y="274.52" as="targetPoint" />
          </mxGeometry>
        </mxCell>
        <mxCell id="R377XzYp1-sSstpi_tux-17" value="返回" style="edgeLabel;html=1;align=center;verticalAlign=middle;resizable=0;points=[];fontSize=12;" vertex="1" connectable="0" parent="R377XzYp1-sSstpi_tux-16">
          <mxGeometry x="-0.0104" relative="1" as="geometry">
            <mxPoint as="offset" />
          </mxGeometry>
        </mxCell>
        <mxCell id="R377XzYp1-sSstpi_tux-18" value="" style="endArrow=classic;html=1;rounded=0;fontSize=12;" edge="1" parent="1">
          <mxGeometry width="50" height="50" relative="1" as="geometry">
            <mxPoint x="250" y="270" as="sourcePoint" />
            <mxPoint x="140" y="210" as="targetPoint" />
          </mxGeometry>
        </mxCell>
        <mxCell id="R377XzYp1-sSstpi_tux-19" value="返回" style="edgeLabel;html=1;align=center;verticalAlign=middle;resizable=0;points=[];fontSize=12;" vertex="1" connectable="0" parent="R377XzYp1-sSstpi_tux-18">
          <mxGeometry x="-0.0104" relative="1" as="geometry">
            <mxPoint as="offset" />
          </mxGeometry>
        </mxCell>
      </root>
    </mxGraphModel>
  </diagram>
</mxfile>
